inDegrees=no
num_controls=7
num_derivatives=13
num_iterations=85
num_multipliers=7
num_parameters=0
num_slacks=7
num_states=26
objective=0.454575
objective_accelerations=0.044911
objective_balance=0.000819
objective_effort=0.036574
objective_height=0.366177
objective_ligament=0.006093
solver_duration=950.815092
status=Solve_Succeeded
success=true
DataType=double
version=3
OpenSimVersion=4.5
endheader
time	/jointset/ground_pelvis/pelvis_tilt/value	/jointset/ground_pelvis/pelvis_tx/value	/jointset/ground_pelvis/pelvis_ty/value	/jointset/hip_r/hip_flexion_r/value	/jointset/hip_r/hip_adduction_r/value	/jointset/hip_r/hip_rotation_r/value	/jointset/back/lumbar_extension/value	/jointset/patellofemoral_r/patellar_flexion_r/value	/jointset/knee_r/knee_flexion_r/value	/jointset/knee_r/knee_adduction_r/value	/jointset/knee_r/knee_rotation_r/value	/jointset/ankle_r/ankle_angle_r/value	/jointset/subtalar_r/subtalar_angle_r/value	/jointset/ground_pelvis/pelvis_tilt/speed	/jointset/ground_pelvis/pelvis_tx/speed	/jointset/ground_pelvis/pelvis_ty/speed	/jointset/hip_r/hip_flexion_r/speed	/jointset/hip_r/hip_adduction_r/speed	/jointset/hip_r/hip_rotation_r/speed	/jointset/back/lumbar_extension/speed	/jointset/patellofemoral_r/patellar_flexion_r/speed	/jointset/knee_r/knee_flexion_r/speed	/jointset/knee_r/knee_adduction_r/speed	/jointset/knee_r/knee_rotation_r/speed	/jointset/ankle_r/ankle_angle_r/speed	/jointset/subtalar_r/subtalar_angle_r/speed	/forceset/tau_hip_flexion_r	/forceset/tau_hip_adduction_r	/forceset/tau_hip_rotation_r	/forceset/tau_knee_flexion_r	/forceset/tau_ankle_angle_r	/forceset/tau_subtalar_angle_r	/forceset/tau_lumbar_extension	lambda_cid13_p0	lambda_cid14_p0	lambda_cid14_p1	lambda_cid14_p2	lambda_cid14_p3	lambda_cid14_p4	lambda_cid14_p5	/jointset/ground_pelvis/pelvis_tilt/accel	/jointset/ground_pelvis/pelvis_tx/accel	/jointset/ground_pelvis/pelvis_ty/accel	/jointset/hip_r/hip_flexion_r/accel	/jointset/hip_r/hip_adduction_r/accel	/jointset/hip_r/hip_rotation_r/accel	/jointset/back/lumbar_extension/accel	/jointset/patellofemoral_r/patellar_flexion_r/accel	/jointset/knee_r/knee_flexion_r/accel	/jointset/knee_r/knee_adduction_r/accel	/jointset/knee_r/knee_rotation_r/accel	/jointset/ankle_r/ankle_angle_r/accel	/jointset/subtalar_r/subtalar_angle_r/accel	gamma_cid13_p0	gamma_cid14_p0	gamma_cid14_p1	gamma_cid14_p2	gamma_cid14_p3	gamma_cid14_p4	gamma_cid14_p5
1	-0.2099417454019909	-0.002935769106568932	0.6551421357739036	1.351501011572239	-0.2540912039039368	0.09825182458656001	-0.7853975477150306	1.478928250243637	1.478928250243637	0.04821494684856479	0.1745316219099907	0.436270048714868	0.141421362363906	0.06970931462454821	0.005097908556758247	0.01453520831135829	-0.0990721698733307	-0.00170162294450913	-0.006423973577784859	0.000112703984579592	-0.01684639395225049	-0.01684639395225088	0.0004366024629442522	-4.704096993392092e-05	0.01228175402166721	0.002567641583486025	-0.3186500392646018	0.02701982193157788	0.05075731609961362	-0.4633144092329955	-0.02673639271256547	-0.01932241583033842	0.3487651328364243	-0.04048746062263275	-61.30759866195569	-22.58941872745565	7.979086008436529	9.101933208996106	-762.7727965426807	64.79093194735844	1.280799965558847	0.1366368020062534	1.702650320646423	-5.17062461932095	-0.0813330873498439	-1.541307028293082	-0.004630765553784734	-4.874560950220408	-4.874560950220392	0.08512398908248234	-3.558013477031612e-05	-1.221527259461741	-0.6727808935150098	-7.758741866570548e-11	-1.27611677348238e-09	-5.397584873684682e-09	1.616291928183637e-09	2.310181206033471e-09	-4.194518822369359e-09	-1.347344731666602e-08
1.01	-0.2091816480313926	-0.00287776380231525	0.6553724006811864	1.350252925331187	-0.2541122084223641	0.09811051452014402	-0.7853938910748686	1.478516522625225	1.478516522625223	0.048223290203881	0.1745309765685245	0.4363321886848675	0.1414137226759214	0.08227301883904466	0.006525646079391087	0.03150911534672067	-0.1505202790786244	-0.002501849626004269	-0.02183146730936574	0.0008181936052083331	-0.06547580144399015	-0.06547580144399021	0.001234091080981827	-7.709511026185213e-05	0.0001840020908698468	-0.004082913705862074	-0.3195222438415821	0.02707022875688572	0.05074062562303638	-0.4630025038749823	-0.02717838416110105	-0.01924823723219196	0.3499087850090493	-0.04047896772514999	-61.46583095000501	-22.57415015931526	7.964363280507347	8.888627248337485	-763.3158312881673	64.7919059388629	1.23858455485333	0.1492173816163899	1.693460871806757	-5.128184373743332	-0.07975226866922097	-1.539486015437239	0.1380742586890454	-4.853631195669383	-4.853631195669324	0.07736566065474547	-0.003751984438840731	-1.198235094213725	-0.6592942322174525	-1.040447303085758e-09	-3.020992074256183e-09	-5.495282882736633e-09	-3.380083612864246e-09	5.400664577460952e-09	-6.741292614286047e-09	-2.061036487398423e-08
1.02	-0.2082970278375606	-0.002804806091990245	0.6557721446541881	1.348491101937555	-0.2541412921696323	0.09781532642244735	-0.7853771924519011	1.477619200822491	1.477619200822491	0.04823966931786608	0.1745301783549706	0.4362744839487107	0.1413399571579285	0.09461387927187333	0.008088389771023064	0.04843102145509516	-0.2018196003883073	-0.003317468712294601	-0.03719957983481382	0.002721100538547766	-0.1139652308164759	-0.1139652308164756	0.002043754198635264	-7.761538887012079e-05	-0.01168718721292767	-0.01065752441812085	-0.3203944484185837	0.02712063558219618	0.05072393514648266	-0.4626905985169698	-0.02762037560963341	-0.01917405863403963	0.3510524371816541	-0.04047625951226724	-61.63164205346818	-22.55717988740994	7.945910008176788	8.683808652695049	-764.0004939583296	64.7931163891699	1.236231209225273	0.1636380358060937	1.692250135248848	-5.140867040198802	-0.08441156830889288	-1.533430787066529	0.2348526969882628	-4.84656532636962	-4.846565326369605	0.08755888900566007	0.005871192209182848	-1.17621473406175	-0.6575919780971539	-1.327110883088405e-09	-3.526872287253859e-09	-1.73015766372875e-09	-8.058004428087511e-09	5.784883029229919e-09	-1.049597282893915e-08	-1.786420337199068e-08
1.03	-0.2072903840881238	-0.002715625746284444	0.6563408181952344	1.346217405154819	-0.2541785525331568	0.09736666197103767	-0.7853355850350865	1.476237464427256	1.476237464427256	0.0482642089877664	0.1745294798385811	0.4360988630253941	0.1412007994343201	0.106648591989987	0.009762275415178408	0.06529178874030821	-0.2528550174240223	-0.004131856514639915	-0.05252526040331167	0.005792167624063022	-0.1623804825953491	-0.1623804825953498	0.002867724223321203	-6.071652891209634e-05	-0.0234331293884185	-0.01716474785962576	-0.3207697774927828	0.02716306423998249	0.05069844090803769	-0.4622978231180775	-0.02796941778871012	-0.01910282027740645	0.3517662905651294	-0.04049418484139656	-61.75038326816941	-22.52999780152893	7.922119390778869	8.587255215993972	-764.3622437599093	64.7897029180201	1.177149531450219	0.1714544659948931	1.681202447658016	-5.075168549120511	-0.07954122471454596	-1.530932130393686	0.3720014342066993	-4.838769935289913	-4.838769935290061	0.08035004366764381	-0.000197989666047071	-1.1732042493902	-0.6458977753997479	-1.606874500801074e-09	-4.020109693233404e-09	2.074384118830786e-09	-1.273267570529216e-08	6.141486532839092e-09	-1.426297861933447e-08	-1.50171941244939e-08
1.04	-0.2061653815658375	-0.002609268416682114	0.657077741893633	1.34343529629895	-0.2542238745424097	0.0967649816262163	-0.7852575134034396	1.474371622547903	1.474371622547904	0.04829709515479843	0.1745289908662813	0.4358058986223027	0.1409968474266518	0.1182856338419322	0.01152378655032878	0.0820810529255367	-0.3035020150142437	-0.004929797857673217	-0.06780275851790152	0.01001394350451824	-0.2107863276399712	-0.2107863276399729	0.003713053626712122	-3.570657115913176e-05	-0.03515588316780684	-0.02361638123003489	-0.3211451065669868	0.02720549289777055	0.05067294666961543	-0.4619050477191845	-0.02831845996778578	-0.01903158192077001	0.3524801439485999	-0.04051790857988705	-61.8767574943675	-22.50121480130915	7.894718590111616	8.497377250625929	-764.8668050390552	64.78650015232844	1.156697035991573	0.1811631340051198	1.677949515251936	-5.063183151100106	-0.08112227644650261	-1.523794296284938	0.4649944559762383	-4.844683979519379	-4.844683979519381	0.09183076474666282	0.00749341176819253	-1.171577054841213	-0.6464739638780005	-2.236125791506133e-09	-5.02503282114233e-09	2.715931313632747e-09	-1.731424546289508e-08	7.623723544222491e-09	-1.757292921754399e-08	-1.924297920256327e-08
1.05	-0.2049255301449527	-0.002484821855692404	0.6579821923992868	1.340148220932496	-0.254277065772879	0.09601080603752327	-0.7851320035939113	1.472021851333295	1.472021851333296	0.04833850805462944	0.1745287693549079	0.4353958918588487	0.1407287609900064	0.1296628958587629	0.01338373670280432	0.09879608404797592	-0.3538899631224545	-0.005703068760671665	-0.08301920887640427	0.01522942479810307	-0.2591582460060568	-0.259158246006058	0.004571363257704891	-9.444172400015487e-06	-0.04683499411798518	-0.02998180350037041	-0.3212365542305565	0.02720311821243518	0.05062869319587429	-0.4612036142338788	-0.02856749747443708	-0.01894272339876873	0.352945738138284	-0.04054733270495941	-61.94038390881137	-22.44598053893019	7.854177129379782	8.360450191318277	-764.971479186474	64.77107228835945	1.124977637756684	0.1911444577618715	1.666331080149207	-5.023136852077252	-0.07462442135770481	-1.518602624958164	0.5710359255624988	-4.831994792064119	-4.83199479206403	0.08311027853619948	6.040017809670953e-05	-1.164507531336563	-0.6287129798720666	-2.876298571992203e-09	-6.045946127861548e-09	3.258634927567301e-09	-2.189290579801045e-08	9.141136602723826e-09	-2.086859684099772e-08	-2.368978910330655e-08
1.06	-0.2035725587332542	-0.002341229092799282	0.6590534034500469	1.336357958842679	-0.2543378286972059	0.09510485950138337	-0.7849500967795441	1.469188651129643	1.469188651129644	0.04838855989401632	0.1745287840167719	0.4348694081026466	0.1403975930064051	0.1409096320047071	0.01535302693101101	0.1154331619467837	-0.4041393596864927	-0.006444136628917711	-0.09815694800791663	0.0212933444722021	-0.3074721254485805	-0.307472125448581	0.005440841539123737	1.15280762933544e-05	-0.0584512817173797	-0.03623269062113607	-0.3213280018941298	0.02720074352710086	0.0505844397221475	-0.4605021807485727	-0.02881653498108774	-0.01885386487676546	0.3534113323279647	-0.04058271790433008	-62.01180211948332	-22.38925421867414	7.810135429675166	8.229138486181196	-765.2207801984213	64.75622591639352	1.130591861814257	0.2030311491513699	1.662358870525651	-5.035472842265598	-0.0746816694960319	-1.508052050886864	0.6346821320790683	-4.833076194806974	-4.833076194806972	0.09406449483188456	0.006435381755058328	-1.159012384684416	-0.6235669339640277	-3.788347947288734e-09	-6.393132463547693e-09	4.000651944941792e-09	-2.827698604823105e-08	9.199299190384564e-09	-2.289366854334305e-08	-2.755435850056302e-08
1.07	-0.2021081494851653	-0.002177405939783327	0.6602904723835594	1.332066495059101	-0.2544058089087528	0.094048000843444	-0.7847029321200621	1.465872708153917	1.465872708153919	0.04844736004726657	0.1745289834776732	0.4342269645139459	0.1400045158500492	0.1519101556324098	0.0174289206244985	0.1319550465958442	-0.4540675904414322	-0.007143238514766329	-0.1131925324234876	0.02832199878551321	-0.3556960419120244	-0.3556960419120239	0.006322719303938977	2.6925844439238e-05	-0.07003813580473929	-0.04236097748731422	-0.3210606261689294	0.02715182710638644	0.0505223192603011	-0.4595243754380335	-0.02894537342141139	-0.01875370794064101	0.35360154752455	-0.04062984763586425	-62.01403107619846	-22.30899207801405	7.754900214256181	8.078434777669957	-765.0397304171373	64.72794275403285	1.075473228652138	0.2124678580473435	1.643261540208796	-4.958627873327714	-0.0662279324048627	-1.49798076685842	0.764318785129133	-4.813984248347094	-4.813984248346929	0.08578399963130906	-0.001131502424442746	-1.158627577140665	-0.6041984283675697	-4.714858843585823e-09	-6.704482258221436e-09	4.753270739095003e-09	-3.475709927265938e-08	9.179842072149515e-09	-2.485115535626771e-08	-3.138795765827231e-08
